# xmcd
#
# Track frame offsets: 
#        150
#        17022
#        36821
#        54538
#        71589
#        84609
#        106278
#        127823
#        155537
#        174809
#        192793
#        210069
#        229583
#        243400
#
# Disc length: 3491 seconds
#
# Revision: 0
# Processed by: cddbd v1.5.2PL0 Copyright (c) Steve Scherf et al.
# Submitted via: ExactAudioCopy v0.99pb4
#
DISCID=a40da10e
DTITLE=The Radio Stars - Headin' West
DYEAR=2009
DGENRE=Western
TTITLE0=Cowboy Man
TTITLE1=Mariah
TTITLE2=Painted Lady
TTITLE3=Six Days On the Road
TTITLE4=My Dakota Home
TTITLE5=Goodbye Old Missoula
TTITLE6=Ride, Cowboy, Ride
TTITLE7=Sons of the Pioneers Medley: a. Tumbling Tumbleweeds, b. Cool 
TTITLE7=Water, c. I'm An Old Cowhand
TTITLE8=Ghost Riders In the Sky
TTITLE9=Prairie Anthem
TTITLE10=San Francisco Bay Blues
TTITLE11=I Know You Rider
TTITLE12=Night Herding Song
TTITLE13=Stanley, ND
EXTD=
EXTT0=
EXTT1=
EXTT2=
EXTT3=
EXTT4=
EXTT5=
EXTT6=
EXTT7=
EXTT8=
EXTT9=
EXTT10=
EXTT11=
EXTT12=
EXTT13=
PLAYORDER=
